<?xml version="1.0" encoding="utf-8"?>
<svg version="1.1" id="Capa_1" x="0px" y="0px" viewBox="0 0 425.197 425.196" style="enable-background:new 0 0 425.197 425.196;" xmlns="http://www.w3.org/2000/svg">
  <ellipse style="fill:#0095B8;" cx="179.613" cy="377.198" rx="134.895" ry="11.488"/>
  <path style="fill: rgb(147, 232, 255);" d="M381.659,160.031h-95.2c-6.353,0-11.5-5.149-11.5-11.5c0-6.35,5.147-11.5,11.5-11.5h95.2 c6.351,0,11.5-5.148,11.5-11.5c0-6.351-5.149-11.5-11.5-11.5h-38.023c6.352,0,11.5-5.149,11.5-11.5c0-6.351-5.148-11.5-11.5-11.5 h-63.022c-6.352,0-11.5-5.149-11.5-11.5c0-6.351,5.148-11.5,11.5-11.5h43.248c6.352,0,11.5-5.149,11.5-11.5 c0-6.351-5.148-11.5-11.5-11.5H43.538c-6.351,0-11.5,5.149-11.5,11.5c0,6.352,5.149,11.5,11.5,11.5h19.774 c-6.352,0-11.5,5.149-11.5,11.5c0,6.351,5.148,11.5,11.5,11.5h45.323c6.351,0,11.5,5.149,11.5,11.5c0,6.351-5.149,11.5-11.5,11.5 H63.313c-6.352,0-11.5,5.149-11.5,11.5c0,6.351,5.148,11.5,11.5,11.5h92.47c6.352,0,11.5,5.15,11.5,11.5 c0,6.351-5.148,11.5-11.5,11.5h-92.47c-6.352,0-11.5,5.15-11.5,11.5c0,6.351,5.148,11.5,11.5,11.5h25.549 c6.352,0,11.5,5.15,11.5,11.5c0,6.351-5.148,11.499-11.5,11.499H43.538c-6.351,0-11.5,5.15-11.5,11.5c0,6.352,5.149,11.5,11.5,11.5 h318.347c6.352,0,11.5-5.148,11.5-11.5c0-6.35-5.148-11.5-11.5-11.5h-38.023c6.352,0,11.5-5.148,11.5-11.499 c0-6.35-5.148-11.5-11.5-11.5h57.798c6.351,0,11.5-5.149,11.5-11.5C393.159,165.181,388.01,160.031,381.659,160.031z"/>
  <path style="fill:#FFFFFF;" d="M394.15,281.754H141.414c-5.043,0-9.13,5.15-9.13,11.5c0,6.352,4.087,11.5,9.13,11.5h20.283 c5.042,0,9.13,5.15,9.13,11.5c0,6.351-4.088,11.499-9.13,11.499h-35.982c-5.042,0-9.13,5.15-9.13,11.5c0,6.352,4.088,11.5,9.13,11.5 h252.736c5.043,0,9.13-5.148,9.13-11.5c0-6.35-4.087-11.5-9.13-11.5h-30.186c5.042,0,9.13-5.148,9.13-11.499 c0-6.35-4.088-11.5-9.13-11.5h45.886c5.042,0,9.13-5.148,9.13-11.5C403.28,286.904,399.192,281.754,394.15,281.754z"/>
  <g>
    <rect x="73.904" y="250.458" style="fill:#D48256;" width="217.414" height="125.674"/>
    <rect x="73.904" y="250.458" style="fill:#BB744C;" width="217.414" height="16.145"/>
    <rect x="67.691" y="239.386" style="fill:#D48256;" width="229.84" height="15.955"/>
    <polygon style="fill:#D79C5D;" points="297.531,239.386 67.691,239.386 116.546,189.027 252.008,189.027 &#9;"/>
    <polygon style="fill:#B05F3E;" points="151.202,209.33 143.875,216.882 221.348,216.882 214.52,209.33 &#9;"/>
    <polygon style="fill:#7D402E;" points="153.691,212.219 217.145,212.219 214.52,209.33 151.202,209.33 143.875,216.882 &#10;&#9;&#9;149.168,216.882 &#9;"/>
    <g>
      <path style="fill:#7D402E;" d="M185.582,351.611v4.243c0,1.257-0.66,1.886-1.981,1.886h-1.887c-1.319,0-1.98-0.629-1.98-1.886 v-4.243c-2.353,0-5.532-0.472-9.538-1.414c-4.707-1.132-7.059-2.326-7.059-3.584c0-0.189,0.063-0.472,0.191-0.848l2.766-7.922 c0.254-0.502,0.539-0.754,0.857-0.754c-0.125,0,1.385,0.66,4.531,1.98c3.146,1.32,5.898,2.107,8.251,2.357v-18.482 c-5.407-2.389-8.895-4.21-10.468-5.469c-4.086-3.206-6.129-7.48-6.129-12.824c0-6.035,2.23-10.75,6.695-14.145 c3.206-2.452,6.506-3.74,9.901-3.866v-4.62c0-1.257,0.66-1.887,1.98-1.887h1.887c1.32,0,1.981,0.63,1.981,1.887v4.62 c2.389,0.189,5.185,0.724,8.392,1.602c4.273,1.197,6.412,2.485,6.412,3.868c0,0.252-0.096,0.597-0.283,1.037l-2.924,6.411 c-0.252,0.505-0.535,0.755-0.848,0.755c0.125,0-1.227-0.628-4.055-1.887c-2.83-1.256-5.061-1.885-6.695-1.885v17.444 c5.279,2.579,8.801,4.621,10.561,6.129c3.96,3.458,5.94,7.797,5.94,13.013c0,5.847-1.98,10.435-5.94,13.768 C193.314,349.348,189.793,350.918,185.582,351.611z M180.395,311.911v-15.369c-4.276,1.07-6.413,3.521-6.413,7.354 C173.982,307.29,176.119,309.964,180.395,311.911z M184.922,325.113v16.314c4.211-1.132,6.318-3.709,6.318-7.732 C191.24,330.174,189.133,327.314,184.922,325.113z"/>
    </g>
    <g>
      <path style="fill:#D79C5D;" d="M188.504,348.355v4.243c0,1.257-0.66,1.886-1.98,1.886h-1.887c-1.319,0-1.979-0.629-1.979-1.886 v-4.243c-2.353,0-5.532-0.472-9.539-1.414c-4.706-1.132-7.058-2.326-7.058-3.584c0-0.188,0.064-0.472,0.19-0.848l2.767-7.922 c0.254-0.502,0.539-0.754,0.857-0.754c-0.125,0,1.383,0.66,4.531,1.98c3.146,1.32,5.898,2.106,8.251,2.356v-18.482 c-5.407-2.388-8.898-4.21-10.468-5.469c-4.088-3.206-6.129-7.48-6.129-12.824c0-6.035,2.23-10.75,6.695-14.145 c3.206-2.452,6.506-3.74,9.901-3.866v-4.62c0-1.257,0.66-1.887,1.979-1.887h1.887c1.32,0,1.98,0.63,1.98,1.887v4.62 c2.388,0.189,5.186,0.724,8.393,1.602c4.273,1.196,6.411,2.484,6.411,3.867c0,0.252-0.095,0.598-0.282,1.037l-2.924,6.412 c-0.252,0.504-0.535,0.755-0.848,0.755c0.124,0-1.227-0.629-4.056-1.887c-2.829-1.257-5.06-1.886-6.694-1.886v17.444 c5.279,2.579,8.801,4.621,10.561,6.129c3.961,3.458,5.941,7.797,5.941,13.013c0,5.847-1.98,10.436-5.941,13.77 C196.235,346.092,192.714,347.663,188.504,348.355z M183.317,308.655v-15.369c-4.276,1.07-6.413,3.521-6.413,7.354 C176.904,304.035,179.041,306.708,183.317,308.655z M187.844,321.857v16.314c4.211-1.132,6.317-3.708,6.317-7.731 C194.161,326.918,192.055,324.058,187.844,321.857z"/>
    </g>
  </g>
  <g>
    <path style="fill:#C38769;" d="M214.636,119.674c-10.82,1.308-26.165-9.238-26.165-9.238l6.489-14.155l28.56,5.153 C223.52,101.434,225.455,118.367,214.636,119.674z"/>
    <path style="fill:#C38769;" d="M232.81,110.942c-9.646,3.057-26.635-2.829-26.635-2.829l4.472-14.917l26.307,0.35 C236.953,93.546,242.455,107.885,232.81,110.942z"/>
    <path style="fill:#C38769;" d="M244.264,102.462c-9.646,3.057-26.635-2.829-26.635-2.829l4.473-14.916l26.306,0.35 C248.407,85.066,253.91,99.406,244.264,102.462z"/>
    <path style="fill:#F8B894;" d="M278.295,49.148l10.525,27.85l-52.325,7.228l-28.731,5.213c0,0-6.395,12.127-2.668,17.72 c6.16,9.241-8.172,19.404-17.302,10.534c-9.13-8.869-20.774-30.158-14.663-38.637c6.11-8.478,35.047-26.833,41.721-29.133 C227.033,45.72,278.295,49.148,278.295,49.148z"/>
    <path style="fill:#DCA585;" d="M275.961,74.574c-9.582-3.648-19.162-7.153-28.982-10.121c-1.711-0.517-2.504-1.813-2.598-3.184 c-6.232-0.119-11.994,1.568-17.693,4.91c-7.055,4.134-13.654,8.253-21.335,11.157c-6.021,2.277-13.774,4.625-16.873,10.85 c-0.286,0.575-2.015,4.082-1.038,4.671c1.513,0.912,3.518,0.867,5.227,0.817c4.43-0.128,8.764-1.087,13.179-1.359 c0.207-0.013,0.401-0.007,0.589,0.008c0.727-1.743,1.328-2.886,1.328-2.886l28.731-5.213l47.185-6.518 c-0.481-0.278-0.959-0.562-1.438-0.844C280.103,76.077,277.975,75.341,275.961,74.574z"/>
    <polygon style="fill:#C38769;" points="215.871,65.041 220.113,86.855 224.121,86.471 &#9;"/>
    <polygon style="fill:#C38769;" points="176.964,84.213 196.762,94.307 198.927,90.913 &#9;"/>
    <g>
      <rect x="115.317" y="100.547" transform="matrix(0.4075 -0.9132 0.9132 0.4075 -18.1228 230.2528)" style="fill:#EDE7CA;" width="106.106" height="57.09"/>
      <path style="fill:#7C9050;" d="M125.754,164.085l45.041,20.096l40.19-90.081l-45.041-20.096L125.754,164.085z M206.115,95.369 l-37.628,84.338l-37.862-16.892l37.628-84.338L206.115,95.369z"/>
      <path style="fill:#7C9050;" d="M130.51,155.355l-3.697,8.288l8.721,3.892c0.935-0.677,1.711-1.594,2.215-2.723 c1.526-3.42-0.01-7.428-3.429-8.953C133.078,155.303,131.76,155.157,130.51,155.355z"/>
      <path style="fill:#7C9050;" d="M201.46,91.248l8.288,3.697l-3.893,8.721c-1.145,0.122-2.338-0.043-3.467-0.546 c-3.42-1.525-4.955-5.534-3.429-8.953C199.514,92.925,200.398,91.936,201.46,91.248z"/>
      <path style="fill:#7C9050;" d="M174.114,174.81l-3.697,8.288l-8.721-3.89c-0.121-1.147,0.042-2.34,0.546-3.468 c1.525-3.421,5.533-4.955,8.953-3.43C172.438,172.863,173.426,173.747,174.114,174.81z"/>
      <path style="fill:#7C9050;" d="M174.43,79.188l-8.287-3.697l-3.892,8.72c0.677,0.934,1.595,1.712,2.724,2.216 c3.42,1.525,7.427-0.011,8.952-3.429C174.48,81.757,174.627,80.438,174.43,79.188z"/>
      <path style="fill:#7C9050;" d="M176.607,110.39c11.496,5.129,17.087,17.642,12.488,27.949c-4.6,10.307-17.646,14.504-29.143,9.376 c-11.496-5.129-17.087-17.643-12.488-27.95C152.063,109.458,165.111,105.261,176.607,110.39z"/>
      <path style="fill:#7C9050;" d="M185.723,89.956c2.875,1.282,4.165,4.652,2.883,7.525c-1.281,2.873-4.651,4.165-7.525,2.882 c-2.875-1.282-4.164-4.651-2.883-7.525C179.48,89.964,182.85,88.674,185.723,89.956z"/>
      <path style="fill:#7C9050;" d="M155.631,157.404c2.874,1.282,4.164,4.652,2.881,7.525c-1.281,2.874-4.651,4.164-7.524,2.881 c-2.874-1.282-4.165-4.65-2.882-7.524C149.387,157.413,152.756,156.122,155.631,157.404z"/>
      <g>
        <path style="fill:#EDE7CA;" d="M185.92,138.924l-4.486-2.001c-1.194,2.556-3.183,4.865-4.987,5.924l-2.501-2.394 c1.78-1.124,3.654-3.057,4.765-5.544c1.407-3.154,0.537-6.1-1.995-7.229c-2.443-1.09-4.727-0.032-7.526,2.661 c-3.799,3.738-7.091,5.626-10.955,3.901c-3.688-1.645-5.316-5.515-4.16-9.899l-4.486-2.002l1.229-2.754l4.309,1.923 c1.278-2.626,2.802-4.13,4.132-5.081l2.437,2.418c-0.95,0.695-2.74,2.081-4.009,4.924c-1.525,3.421-0.057,5.621,1.72,6.414 c2.311,1.031,4.198-0.098,7.523-3.249c3.907-3.743,7.248-5.023,11.202-3.259c3.509,1.566,5.706,5.476,4.42,10.389l4.62,2.061 L185.92,138.924z"/>
      </g>
      <rect x="131.035" y="124.772" transform="matrix(0.4074 -0.9132 0.9132 0.4074 -46.6496 234.7377)" style="fill:#CED4CD;" width="53.053" height="57.09"/>
    </g>
    <path style="fill:#F8B894;" d="M245.051,58.975l43.77,18.023c0,0-20.448,3.209-24.557,6.517 c-6.33,5.096-6.302,10.438-20.363,14.009c-12.988,3.301-31.447,6.502-46.043,7.046c-11.412,0.426-17.162-10.814-6.723-15.219 c8.228-3.47,18.461-6.005,25.058-8.184C222.788,78.988,229.004,62.237,245.051,58.975z"/>
    <polygon style="fill:#0D3858;" points="347.718,17.696 373.718,69.012 277.723,83.584 268.832,44.259 &#9;"/>
  </g>
  <g>
    <path style="fill:#C38769;" d="M246.034,196.684c-11.471-0.409-25.758-15.295-25.758-15.295l9.02-15.181l28.903,11.008 C258.199,177.215,257.505,197.094,246.034,196.684z"/>
    <path style="fill:#C38769;" d="M266.349,189.832c-10.53,1.817-27.272-7.985-27.272-7.985l7.04-16.416l27.327,5.068 C273.443,170.498,276.878,188.016,266.349,189.832z"/>
    <path style="fill:#C38769;" d="M279.628,182.08c-10.529,1.816-27.271-7.986-27.271-7.986l7.039-16.415l27.328,5.067 C286.724,162.746,290.157,180.262,279.628,182.08z"/>
    <path style="fill:#F8B894;" d="M323.577,126.603l6.502,33.996l-55.621-0.937l-30.74,0.92c0,0-8.597,12.859-5.611,19.971 c4.934,11.754-11.611,20.939-19.695,9.087c-8.084-11.852-16.8-38.477-9.083-47.176c7.717-8.698,40.771-24.744,48.087-26.216 C270.767,113.562,323.577,126.603,323.577,126.603z"/>
    <path style="fill:#DCA585;" d="M317.082,155.523c-9.391-5.907-18.804-11.649-28.551-16.813c-1.698-0.899-2.316-2.537-2.194-4.134 c-6.467-1.241-12.734-0.316-19.203,2.527c-8.002,3.519-15.532,7.103-23.992,9.093c-6.631,1.558-15.078,2.893-19.298,9.525 c-0.39,0.612-2.749,4.352-1.827,5.204c1.429,1.319,3.522,1.625,5.309,1.87c4.632,0.637,9.297,0.299,13.937,0.769 c0.217,0.021,0.418,0.064,0.611,0.114c1.035-1.883,1.845-3.095,1.845-3.095l30.74-0.92l50.156,0.844 c-0.455-0.406-0.907-0.818-1.361-1.229C321.153,157.991,319.056,156.765,317.082,155.523z"/>
    <polygon style="fill:#C38769;" points="256.058,133.874 256.984,159.792 261.218,160.059 &#9;"/>
    <polygon style="fill:#C38769;" points="212.493,149.096 231.486,164.251 234.284,160.718 &#9;"/>
    <g>
      <path style="fill:#F9B233;" d="M241.142,167.85c2.587,11.258-3.553,22.709-13.711,25.575c-10.158,2.866-20.49-3.938-23.076-15.197 c-2.586-11.259,3.553-22.711,13.712-25.577C228.225,149.786,238.556,156.589,241.142,167.85z"/>
      <path style="fill:#FFCE32;" d="M228.984,191.403c-10.158,2.866-20.49-3.938-23.075-15.196c-1.475-6.418-0.111-12.895,3.211-17.81 c-4.427,5.071-6.451,12.492-4.766,19.832c2.586,11.259,12.918,18.063,23.076,15.197c4.369-1.231,7.991-4.055,10.499-7.767 C235.566,188.367,232.52,190.406,228.984,191.403z"/>
      <path style="fill:#FFCE32;" d="M227.569,187.168c-7.68,2.167-15.49-2.977-17.444-11.488c-1.114-4.851-0.084-9.747,2.429-13.465 c-3.348,3.835-4.878,9.444-3.604,14.994c1.955,8.512,9.766,13.655,17.445,11.488c3.303-0.932,6.041-3.065,7.937-5.87 C232.546,184.873,230.243,186.414,227.569,187.168z"/>
      <path style="fill:none;stroke:#F39433;stroke-width:1.1839;stroke-miterlimit:10;" d="M236.946,169.033 c1.996,8.691-2.742,17.53-10.584,19.742c-7.841,2.214-15.815-3.039-17.813-11.73c-1.996-8.691,2.743-17.531,10.584-19.743 C226.976,155.09,234.95,160.341,236.946,169.033z"/>
      <path style="fill:#F39433;" d="M219.237,155.575c0.066,0.288-0.09,0.581-0.35,0.654l0,0c-0.26,0.073-0.523-0.101-0.591-0.388 l-0.383-1.667c-0.065-0.288,0.093-0.581,0.352-0.654l0,0c0.259-0.073,0.523,0.101,0.589,0.388L219.237,155.575z"/>
      <path style="fill:#F39433;" d="M227.638,192.147c0.066,0.287-0.091,0.58-0.351,0.654l0,0c-0.259,0.072-0.523-0.102-0.589-0.39 l-0.384-1.668c-0.065-0.286,0.091-0.579,0.351-0.652l0,0c0.26-0.073,0.523,0.101,0.59,0.389L227.638,192.147z"/>
      <path style="fill:#F39433;" d="M238.642,169.238c-0.259,0.073-0.523-0.101-0.59-0.388l0,0c-0.065-0.289,0.092-0.58,0.351-0.654 l1.505-0.424c0.259-0.074,0.523,0.101,0.59,0.388l0,0c0.065,0.287-0.092,0.581-0.351,0.653L238.642,169.238z"/>
      <path style="fill:#F39433;" d="M205.645,178.548c-0.26,0.074-0.523-0.101-0.59-0.388l0,0c-0.066-0.288,0.091-0.58,0.35-0.653 l1.505-0.424c0.26-0.073,0.524,0.1,0.589,0.388l0,0c0.066,0.288-0.09,0.58-0.35,0.653L205.645,178.548z"/>
      <path style="fill:#F39433;" d="M231.493,157.953c-0.137,0.255-0.435,0.339-0.665,0.187l0,0c-0.23-0.151-0.306-0.48-0.169-0.736 l0.793-1.479c0.136-0.255,0.434-0.339,0.665-0.188l0,0c0.229,0.152,0.306,0.482,0.169,0.736L231.493,157.953z"/>
      <path style="fill:#F39433;" d="M214.101,190.395c-0.137,0.256-0.436,0.341-0.665,0.188l0,0c-0.23-0.15-0.306-0.481-0.17-0.736 l0.794-1.479c0.137-0.256,0.434-0.339,0.664-0.188l0,0c0.23,0.152,0.307,0.481,0.17,0.736L214.101,190.395z"/>
      <path style="fill:#F39433;" d="M236.497,182.821c-0.23-0.151-0.307-0.482-0.17-0.737l0,0c0.137-0.256,0.436-0.34,0.666-0.188 l1.334,0.878c0.23,0.153,0.306,0.482,0.17,0.736l0,0c-0.137,0.255-0.436,0.339-0.666,0.189L236.497,182.821z"/>
      <path style="fill:#F39433;" d="M207.226,163.544c-0.23-0.152-0.307-0.48-0.17-0.737l0,0c0.137-0.254,0.435-0.339,0.666-0.188 l1.334,0.879c0.23,0.151,0.305,0.482,0.168,0.737l0,0c-0.136,0.254-0.434,0.339-0.664,0.186L207.226,163.544z"/>
      <path style="fill:#F39433;" d="M225.451,155.389c-0.036,0.293-0.28,0.499-0.546,0.459l0,0c-0.266-0.04-0.451-0.312-0.415-0.605 l0.21-1.704c0.037-0.295,0.281-0.501,0.546-0.46l0,0c0.266,0.04,0.452,0.311,0.415,0.604L225.451,155.389z"/>
      <path style="fill:#F39433;" d="M220.853,192.782c-0.037,0.294-0.281,0.5-0.547,0.46l0,0c-0.265-0.041-0.451-0.311-0.414-0.605 l0.209-1.704c0.037-0.295,0.281-0.501,0.547-0.461l0,0c0.265,0.04,0.451,0.311,0.415,0.604L220.853,192.782z"/>
      <path style="fill:#F39433;" d="M238.81,176.124c-0.266-0.04-0.451-0.311-0.415-0.605l0,0c0.036-0.293,0.282-0.5,0.546-0.459 l1.539,0.232c0.265,0.04,0.45,0.311,0.414,0.605l0,0c-0.036,0.294-0.279,0.499-0.545,0.46L238.81,176.124z"/>
      <path style="fill:#F39433;" d="M205.073,171.027c-0.266-0.04-0.451-0.311-0.415-0.605l0,0c0.036-0.294,0.281-0.5,0.546-0.46 l1.538,0.232c0.266,0.04,0.451,0.312,0.415,0.605l0,0c-0.036,0.294-0.28,0.5-0.545,0.46L205.073,171.027z"/>
      <path style="fill:#F39433;" d="M236.006,162.691c-0.213,0.179-0.519,0.133-0.68-0.104l0,0c-0.162-0.236-0.121-0.573,0.092-0.752 l1.236-1.042c0.214-0.18,0.518-0.134,0.68,0.102l0,0c0.161,0.237,0.12,0.575-0.093,0.755L236.006,162.691z"/>
      <path style="fill:#F39433;" d="M208.898,185.527c-0.214,0.18-0.519,0.134-0.681-0.103l0,0c-0.162-0.237-0.12-0.573,0.094-0.754 l1.235-1.041c0.213-0.18,0.517-0.134,0.68,0.103l0,0c0.161,0.236,0.12,0.573-0.093,0.753L208.898,185.527z"/>
      <path style="fill:#F39433;" d="M232.222,187.824c-0.162-0.237-0.12-0.574,0.093-0.754l0,0c0.214-0.18,0.518-0.133,0.68,0.104 l0.938,1.37c0.163,0.235,0.121,0.573-0.092,0.753l0,0c-0.214,0.18-0.518,0.134-0.68-0.104L232.222,187.824z"/>
      <path style="fill:#F39433;" d="M211.618,157.778c-0.161-0.237-0.121-0.574,0.093-0.754l0,0c0.213-0.18,0.519-0.134,0.68,0.103 l0.939,1.37c0.162,0.236,0.12,0.574-0.093,0.753l0,0c-0.213,0.181-0.518,0.134-0.68-0.102L211.618,157.778z"/>
      <path style="fill:#F39433;" d="M228.463,156.281c-0.086,0.282-0.362,0.432-0.615,0.336l0,0c-0.254-0.096-0.389-0.402-0.304-0.682 l0.5-1.629c0.086-0.28,0.361-0.432,0.615-0.336l0,0c0.254,0.095,0.39,0.401,0.304,0.681L228.463,156.281z"/>
      <path style="fill:#F39433;" d="M217.509,192.014c-0.086,0.28-0.361,0.431-0.615,0.335l0,0c-0.254-0.095-0.39-0.401-0.303-0.682 l0.499-1.629c0.086-0.281,0.36-0.431,0.615-0.336l0,0c0.253,0.096,0.39,0.401,0.303,0.683L217.509,192.014z"/>
      <path style="fill:#F39433;" d="M238.005,179.462c-0.254-0.095-0.39-0.4-0.304-0.681l0,0c0.087-0.282,0.362-0.433,0.615-0.337 l1.47,0.554c0.254,0.095,0.391,0.4,0.303,0.682l0,0c-0.086,0.28-0.36,0.43-0.615,0.336L238.005,179.462z"/>
      <path style="fill:#F39433;" d="M205.767,167.322c-0.254-0.096-0.391-0.401-0.304-0.683l0,0c0.086-0.28,0.361-0.432,0.615-0.336 l1.47,0.553c0.253,0.096,0.389,0.4,0.303,0.682l0,0c-0.086,0.282-0.361,0.431-0.615,0.335L205.767,167.322z"/>
      <path style="fill:#F39433;" d="M237.566,165.682c-0.24,0.131-0.531,0.021-0.65-0.245l0,0c-0.118-0.266-0.02-0.589,0.222-0.72 l1.392-0.76c0.24-0.131,0.53-0.021,0.649,0.245l0,0c0.117,0.267,0.02,0.588-0.221,0.72L237.566,165.682z"/>
      <path style="fill:#F39433;" d="M207.023,182.363c-0.239,0.131-0.531,0.023-0.649-0.244l0,0c-0.119-0.267-0.02-0.59,0.221-0.719 l1.393-0.763c0.239-0.13,0.531-0.021,0.648,0.246l0,0c0.119,0.266,0.02,0.588-0.22,0.72L207.023,182.363z"/>
      <path style="fill:#F39433;" d="M229.523,189.551c-0.118-0.266-0.02-0.588,0.223-0.72l0,0c0.239-0.131,0.529-0.021,0.648,0.245 l0.686,1.542c0.118,0.267,0.02,0.591-0.221,0.721l0,0c-0.24,0.131-0.531,0.021-0.649-0.245L229.523,189.551z"/>
      <path style="fill:#F39433;" d="M214.473,155.701c-0.118-0.268-0.02-0.589,0.222-0.721l0,0c0.24-0.131,0.53-0.021,0.648,0.245 l0.686,1.543c0.118,0.267,0.02,0.589-0.221,0.719l0,0c-0.24,0.133-0.532,0.022-0.649-0.243L214.473,155.701z"/>
      <path style="fill:#F39433;" d="M222.087,155.159c0.02,0.297-0.182,0.554-0.448,0.575l0,0c-0.269,0.021-0.5-0.202-0.52-0.497 l-0.112-1.716c-0.02-0.295,0.182-0.552,0.449-0.575l0,0c0.268-0.021,0.5,0.201,0.518,0.498L222.087,155.159z"/>
      <path style="fill:#F39433;" d="M224.546,192.799c0.019,0.296-0.182,0.553-0.449,0.575l0,0c-0.268,0.021-0.5-0.202-0.518-0.497 l-0.112-1.716c-0.02-0.296,0.182-0.554,0.448-0.575l0,0c0.267-0.021,0.5,0.2,0.519,0.498L224.546,192.799z"/>
      <path style="fill:#F39433;" d="M239.017,172.395c-0.267,0.021-0.499-0.2-0.518-0.497l0,0c-0.02-0.296,0.181-0.554,0.448-0.575 l1.548-0.125c0.268-0.02,0.5,0.201,0.52,0.497l0,0c0.019,0.298-0.182,0.554-0.449,0.576L239.017,172.395z"/>
      <path style="fill:#F39433;" d="M205.057,175.121c-0.267,0.021-0.499-0.201-0.519-0.497l0,0c-0.02-0.297,0.182-0.554,0.449-0.576 l1.548-0.124c0.267-0.021,0.499,0.201,0.518,0.496l0,0c0.02,0.297-0.182,0.555-0.449,0.576L205.057,175.121z"/>
      <path style="fill:#F39433;" d="M233.773,159.892c-0.175,0.225-0.48,0.248-0.684,0.054l0,0c-0.203-0.194-0.225-0.534-0.051-0.759 l1.016-1.3c0.176-0.225,0.482-0.249,0.685-0.056l0,0c0.202,0.196,0.226,0.535,0.05,0.759L233.773,159.892z"/>
      <path style="fill:#F39433;" d="M211.498,188.433c-0.175,0.226-0.481,0.249-0.685,0.056l0,0c-0.202-0.194-0.225-0.535-0.049-0.759 l1.015-1.301c0.176-0.226,0.482-0.249,0.685-0.056l0,0c0.202,0.195,0.225,0.534,0.049,0.758L211.498,188.433z"/>
      <path style="fill:#F39433;" d="M234.748,185.348c-0.203-0.194-0.226-0.534-0.05-0.759l0,0c0.175-0.225,0.481-0.249,0.684-0.055 l1.173,1.126c0.203,0.194,0.226,0.534,0.051,0.758l0,0c-0.176,0.225-0.482,0.249-0.686,0.055L234.748,185.348z"/>
      <path style="fill:#F39433;" d="M208.996,160.66c-0.202-0.194-0.226-0.535-0.05-0.759l0,0c0.176-0.225,0.482-0.249,0.684-0.055 l1.174,1.125c0.203,0.195,0.226,0.535,0.049,0.759l0,0c-0.174,0.225-0.48,0.249-0.683,0.055L208.996,160.66z"/>
      <g>
        <path style="fill:#F39433;" d="M226.476,183.114l0.313,1.356c0.092,0.402-0.053,0.657-0.434,0.765l-0.544,0.153 c-0.382,0.108-0.618-0.04-0.71-0.441l-0.313-1.357c-0.679,0.192-1.63,0.298-2.855,0.324c-1.441,0.021-2.207-0.169-2.299-0.572 c-0.015-0.06-0.018-0.155-0.008-0.286l0.215-2.758c0.037-0.182,0.102-0.286,0.193-0.311c-0.037,0.01,0.447,0.098,1.453,0.265 c1.004,0.166,1.856,0.193,2.553,0.083l-1.357-5.912c-1.735-0.323-2.877-0.622-3.423-0.896c-1.414-0.692-2.317-1.894-2.711-3.602 c-0.443-1.93-0.145-3.62,0.894-5.068c0.745-1.045,1.602-1.727,2.573-2.043l-0.339-1.478c-0.093-0.401,0.051-0.656,0.432-0.763 l0.545-0.155c0.381-0.106,0.617,0.041,0.71,0.442l0.34,1.478c0.703-0.134,1.549-0.19,2.538-0.17 c1.321,0.034,2.032,0.273,2.134,0.714c0.019,0.081,0.018,0.199-0.004,0.354l-0.373,2.289c-0.036,0.182-0.1,0.285-0.189,0.311 c0.035-0.011-0.4-0.101-1.309-0.273c-0.908-0.171-1.6-0.191-2.07-0.058l1.281,5.579c1.713,0.395,2.879,0.761,3.497,1.101 c1.398,0.783,2.288,2.009,2.671,3.677c0.429,1.87,0.195,3.498-0.703,4.886C228.54,181.76,227.64,182.549,226.476,183.114z M222.064,170.839l-1.129-4.915c-1.155,0.691-1.592,1.647-1.311,2.875C219.874,169.884,220.687,170.565,222.064,170.839z M224.339,174.693l1.198,5.216c1.132-0.704,1.55-1.7,1.255-2.986C226.533,175.797,225.716,175.054,224.339,174.693z"/>
      </g>
      <path style="fill:#FCC133;" d="M227.398,183.45c1.134-0.553,2.697-2.154,3.376-3.172c1.037-1.555,0.996-4.475,0.114-6.158 c-0.805-1.54-2.456-2.985-3.936-3.521c-2.077-0.751-2.98-1.017-2.814-3.427c0.078-1.122,0.08-0.851,1.012-0.813 c0.945,0.038,1.383,0.285,1.48-0.756c0.166-1.774,0.713-3.313-0.257-3.832c-0.93-0.498-3.853-0.291-4.285-1.004 c-0.366-0.604-0.812-2.662-0.812-2.662s11.002,0.182,13.947,10.209c2.107,7.173-0.525,16.273-7.169,17.927 C227.876,185.604,227.398,183.45,227.398,183.45z"/>
      <path style="fill:#FCC133;" d="M224.357,184.372l0.561,2.441c0,0-11.461-0.15-13.701-10.841 c-2.762-12.022,7.288-17.083,7.288-17.083l0.776,3.387c0,0-4.508,1.388-3.432,7.015c1.305,6.82,5.551,5.478,6.047,5.894 c0.496,0.414,1.236,3.423,0.991,3.88c-0.245,0.458-3.38,0.026-3.858,0.487c-0.479,0.459-0.594,4.316,0.002,4.732 C219.627,184.7,224.357,184.372,224.357,184.372z"/>
    </g>
    <path style="fill:#F8B894;" d="M287.402,132.047l42.677,28.552c0,0-21.799,0.078-26.604,3.165 c-7.403,4.757-8.228,10.924-23.438,12.553c-14.047,1.505-33.772,1.927-49.053-0.033c-11.947-1.531-16.135-15.519-4.563-18.749 c9.118-2.546,20.177-3.657,27.392-5.001C261.026,151.19,270.177,132.968,287.402,132.047z"/>
    <polygon style="fill:#375C7C;" points="403.28,111.822 403.28,164.819 317.474,166.23 314.509,119.284 &#9;"/>
  </g>
</svg>